<svg width="66" height="60" viewBox="0 0 66 60" fill="none" xmlns="http://www.w3.org/2000/svg">
<g clip-path="url(#clip0_3_211)">
<path fill-rule="evenodd" clip-rule="evenodd" d="M16.9153 16.9213C20.2004 13.6473 24.7338 11.61 29.7501 11.61C39.7714 11.61 47.9001 19.7387 47.9001 29.76C47.9001 39.7813 39.7714 47.91 29.7501 47.91C19.7288 47.91 11.6001 39.7813 11.6001 29.76C11.6001 29.2535 11.6333 28.7661 11.6624 28.3398L11.6639 28.3178C11.7259 27.4086 12.5132 26.7218 13.4223 26.7838C14.3315 26.8458 15.0183 27.6331 14.9563 28.5422C14.9257 28.9908 14.9001 29.3753 14.9001 29.76C14.9001 37.9587 21.5514 44.61 29.7501 44.61C37.9488 44.61 44.6001 37.9587 44.6001 29.76C44.6001 21.5613 37.9488 14.91 29.7501 14.91C25.6464 14.91 21.9398 16.5727 19.2449 19.2587C18.5994 19.902 17.5547 19.9002 16.9114 19.2548C16.2681 18.6093 16.2699 17.5646 16.9153 16.9213Z" fill="#313131"/>
<path fill-rule="evenodd" clip-rule="evenodd" d="M50.7159 23.8976C51.4076 23.3043 52.4493 23.3841 53.0426 24.0757L57.7602 29.5757L62.4778 24.0757C63.0711 23.3841 64.1127 23.3043 64.8044 23.8976C65.4961 24.4909 65.5758 25.5326 64.9826 26.2242L59.0126 33.1842C58.6991 33.5497 58.2416 33.76 57.7602 33.76C57.2787 33.76 56.8212 33.5497 56.5078 33.1842L50.5378 26.2242C49.9445 25.5326 50.0242 24.4909 50.7159 23.8976Z" fill="#313131"/>
<path fill-rule="evenodd" clip-rule="evenodd" d="M0 29.76C0 13.3183 13.3291 0 29.76 0C46.1917 0 59.51 13.3191 59.51 29.76C59.51 30.5772 59.467 31.3734 59.4047 32.1516C59.3321 33.0599 58.5368 33.7374 57.6284 33.6647C56.7201 33.5921 56.0426 32.7968 56.1153 31.8884C56.173 31.1666 56.21 30.4628 56.21 29.76C56.21 15.1409 44.3683 3.3 29.76 3.3C15.1509 3.3 3.3 15.1417 3.3 29.76C3.3 44.3787 15.1413 56.22 29.76 56.22C37.0647 56.22 43.6799 53.2566 48.4633 48.4733C49.1076 47.8289 50.1524 47.8289 50.7967 48.4733C51.4411 49.1176 51.4411 50.1624 50.7967 50.8067C45.4201 56.1834 37.9753 59.52 29.76 59.52C13.3187 59.52 0 46.2013 0 29.76Z" fill="#313131"/>
<path fill-rule="evenodd" clip-rule="evenodd" d="M12.812 26.8503C13.2882 26.7749 13.7734 26.9116 14.1403 27.2243L21.1203 33.1743C21.8138 33.7655 21.8967 34.8069 21.3055 35.5004C20.7144 36.1939 19.673 36.2769 18.9795 35.6857L13.4663 30.9861L9.67559 37.154C9.19844 37.9303 8.18227 38.1729 7.4059 37.6957C6.62954 37.2186 6.38698 36.2024 6.86413 35.426L11.6641 27.616C11.9165 27.2054 12.3359 26.9256 12.812 26.8503Z" fill="#313131"/>
</g>
<defs>
<clipPath id="clip0_3_211">
<rect width="65.38" height="59.51" fill="white"/>
</clipPath>
</defs>
</svg>
